<?xml version="1.0" encoding="utf-8"?>
<!-- Generator: Adobe Illustrator 21.1.0, SVG Export Plug-In . SVG Version: 6.00 Build 0)  -->
<svg version="1.1"
	 id="Calque_1" xmlns:cc="http://creativecommons.org/ns#" xmlns:dc="http://purl.org/dc/elements/1.1/" xmlns:inkscape="http://www.inkscape.org/namespaces/inkscape" xmlns:rdf="http://www.w3.org/1999/02/22-rdf-syntax-ns#" xmlns:sodipodi="http://sodipodi.sourceforge.net/DTD/sodipodi-0.dtd" xmlns:svg="http://www.w3.org/2000/svg"
	 xmlns="http://www.w3.org/2000/svg" xmlns:xlink="http://www.w3.org/1999/xlink" x="0px" y="0px" viewBox="0 0 86 86"
	 style="enable-background:new 0 0 86 86;" xml:space="preserve">
<g transform="translate(0,-952.36218)">
	<path d="M35,952.4l-2.7,11.8c-1.3,0.4-2.6,1-3.8,1.6l-10.3-6.4L6.9,970.6l6.4,10.3c-0.6,1.2-1.1,2.5-1.6,3.8L0,987.4v16l11.8,2.7
		c0.4,1.3,1,2.6,1.6,3.8l-6.4,10.3l11.3,11.3l10.3-6.4c1.2,0.6,2.5,1.1,3.8,1.6l2.7,11.8h16l2.7-11.8c1.3-0.4,2.6-1,3.8-1.6
		l10.3,6.4l11.3-11.3l-6.4-10.3c0.6-1.2,1.1-2.5,1.6-3.8l11.8-2.7v-16l-11.8-2.7c-0.4-1.3-1-2.6-1.6-3.8l6.4-10.3l-11.3-11.3
		l-10.3,6.4c-1.2-0.6-2.5-1.1-3.8-1.6L51,952.4H35z M43,975.4c11,0,20,9,20,20c0,11-9,20-20,20s-20-9-20-20
		C23,984.3,32,975.4,43,975.4z"/>
</g>
</svg>
